<svg xmlns="http://www.w3.org/2000/svg" viewBox="0 0 300 200">
  <!-- ピッチ外枠 -->
  <rect x="10" y="10" width="280" height="180" fill="none" stroke="white" stroke-width="2"/>

  <!-- ハーフウェイライン（横向き） -->
  <line x1="10" y1="100" x2="290" y2="100" stroke="white" stroke-width="2"/>

  <!-- センターサークル -->
  <circle cx="150" cy="100" r="25" fill="none" stroke="white" stroke-width="2"/>
  <circle cx="150" cy="100" r="1" fill="white"/>

  <!-- ペナルティエリア（上） -->
  <rect x="70" y="10" width="160" height="40" fill="none" stroke="white" stroke-width="2"/>

  <!-- ゴールエリア（上） -->
  <rect x="110" y="10" width="80" height="15" fill="none" stroke="white" stroke-width="2"/>


  <!-- ペナルティエリア（下） -->
  <rect x="70" y="150" width="160" height="40" fill="none" stroke="white" stroke-width="2"/>

  <!-- ゴールエリア（下） -->
  <rect x="110" y="175" width="80" height="15" fill="none" stroke="white" stroke-width="2"/>


  <!-- コーナーアーク -->
  <path d="M 10 15 A 5 5 0 0 1 15 10" fill="none" stroke="white" stroke-width="2"/>
  <path d="M 285 10 A 5 5 0 0 1 290 15" fill="none" stroke="white" stroke-width="2"/>
  <path d="M 290 185 A 5 5 0 0 1 285 190" fill="none" stroke="white" stroke-width="2"/>
  <path d="M 15 190 A 5 5 0 0 1 10 185" fill="none" stroke="white" stroke-width="2"/>
</svg>